/vscmnt/brussel_pixiu_data/_data_brussel/112/vsc11236/PredSimResults/SUBJ09_Dhondt2024_3seg/SUBJ09_Dhondt2024_3seg_12579849.mot
version=1
nRows=4
nColumns=124
inDegrees=yes
endheader
                time	         pelvis_tilt	         pelvis_list	     pelvis_rotation	           pelvis_tx	           pelvis_ty	           pelvis_tz	       hip_flexion_r	     hip_adduction_r	      hip_rotation_r	        knee_angle_r	       ankle_angle_r	    subtalar_angle_r	         mtp_angle_r	       hip_flexion_l	     hip_adduction_l	      hip_rotation_l	        knee_angle_l	       ankle_angle_l	    subtalar_angle_l	         mtp_angle_l	    lumbar_extension	      lumbar_bending	     lumbar_rotation	          arm_flex_r	           arm_add_r	           arm_rot_r	        elbow_flex_r	          arm_flex_l	           arm_add_l	           arm_rot_l	        elbow_flex_l	glut_med1_r/activation	glut_med2_r/activation	glut_med3_r/activation	glut_min1_r/activation	glut_min2_r/activation	glut_min3_r/activation	semimem_r/activation	semiten_r/activation	bifemlh_r/activation	bifemsh_r/activation	    sar_r/activation	add_long_r/activation	add_brev_r/activation	add_mag1_r/activation	add_mag2_r/activation	add_mag3_r/activation	    tfl_r/activation	   pect_r/activation	   grac_r/activation	glut_max1_r/activation	glut_max2_r/activation	glut_max3_r/activation	iliacus_r/activation	  psoas_r/activation	quad_fem_r/activation	    gem_r/activation	   peri_r/activation	rect_fem_r/activation	vas_med_r/activation	vas_int_r/activation	vas_lat_r/activation	med_gas_r/activation	lat_gas_r/activation	 soleus_r/activation	tib_post_r/activation	flex_dig_r/activation	flex_hal_r/activation	tib_ant_r/activation	per_brev_r/activation	per_long_r/activation	per_tert_r/activation	ext_dig_r/activation	ext_hal_r/activation	glut_med1_l/activation	glut_med2_l/activation	glut_med3_l/activation	glut_min1_l/activation	glut_min2_l/activation	glut_min3_l/activation	semimem_l/activation	semiten_l/activation	bifemlh_l/activation	bifemsh_l/activation	    sar_l/activation	add_long_l/activation	add_brev_l/activation	add_mag1_l/activation	add_mag2_l/activation	add_mag3_l/activation	    tfl_l/activation	   pect_l/activation	   grac_l/activation	glut_max1_l/activation	glut_max2_l/activation	glut_max3_l/activation	iliacus_l/activation	  psoas_l/activation	quad_fem_l/activation	    gem_l/activation	   peri_l/activation	rect_fem_l/activation	vas_med_l/activation	vas_int_l/activation	vas_lat_l/activation	med_gas_l/activation	lat_gas_l/activation	 soleus_l/activation	tib_post_l/activation	flex_dig_l/activation	flex_hal_l/activation	tib_ant_l/activation	per_brev_l/activation	per_long_l/activation	per_tert_l/activation	ext_dig_l/activation	ext_hal_l/activation	 ercspn_r/activation	 ercspn_l/activation	 intobl_r/activation	 intobl_l/activation	 extobl_r/activation	 extobl_l/activation	
          1.59886100	         -2.92812784	          2.19679133	         -1.47028669	          1.98258764	          0.99025263	          0.00137198	        -14.01402951	         -0.11328709	          6.79218387	         -8.55472440	          5.63351588	          9.48204060	         16.70713293	         23.24263651	          4.14796496	          1.48117777	         -4.92816026	          7.02581426	         -2.16625453	          0.17789147	         -3.86909074	         -2.07281447	          1.67559212	         -1.31618928	        -13.75550361	         18.76858215	         45.41212098	         -7.52136245	        -13.45387781	         12.77424958	         33.49978632	          0.20459634	          0.10996773	          0.06688945	          0.28640353	          0.23899986	          0.16408857	          0.01000347	          0.01000075	          0.01000050	          0.04663995	          0.07718063	          0.01000018	          0.01000021	          0.01000032	          0.01000109	          0.01000063	          0.38610177	          0.01000099	          0.01000146	          0.01632882	          0.01177554	          0.01000184	          0.23034378	          0.43002324	          0.01095351	          0.01633149	          0.06658626	          0.31212821	          0.01000059	          0.01000057	          0.01000051	          0.30178258	          0.39064098	          0.32859448	          0.28969657	          0.39298009	          0.44821784	          0.01386911	          0.01000076	          0.10770182	          0.01386982	          0.01581117	          0.01617757	          0.02043392	          0.01386155	          0.01000101	          0.01386928	          0.01386849	          0.01000157	          0.07438489	          0.04103157	          0.23656435	          0.01000054	          0.01000075	          0.09873640	          0.15709586	          0.13688894	          0.12147991	          0.08219886	          0.01000110	          0.02745866	          0.03581620	          0.01178120	          0.03784093	          0.03204014	          0.01000018	          0.01000023	          0.02133796	          0.01000062	          0.01000025	          0.01460539	          0.07300476	          0.07433555	          0.06210846	          0.01000003	          0.01000010	          0.01000001	          0.01177655	          0.01177653	          0.01177630	          0.25385003	          0.15585459	          0.10989269	          0.12640454	          0.28146804	          0.05120162	          0.01000002	          0.01772850	          0.01000003	          0.02732997	          0.01000006	          0.05465081	
          1.60952007	         -2.92218348	          2.52347807	         -1.56123552	          1.99818519	          0.98993822	          0.00114442	        -13.97057446	         -0.49561324	          6.57594983	        -10.15714318	          4.67873820	         10.01776280	         17.91546164	         22.26341253	          4.73630017	          1.57234195	         -3.86513527	          6.14834022	         -2.29498963	          0.19334472	         -3.69622432	         -2.54816525	          1.74530951	         -1.84227066	        -13.77316749	         18.72514550	         46.35879201	         -7.83196483	        -13.44971663	         12.39247793	         32.98085883	          0.18192808	          0.09337890	          0.05679905	          0.24319924	          0.20294636	          0.13933552	          0.01000146	          0.01000033	          0.01000018	          0.03960424	          0.06553791	          0.02264903	          0.01000079	          0.01000066	          0.01000159	          0.01000056	          0.32785795	          0.03844659	          0.01000607	          0.01386675	          0.01000216	          0.01000097	          0.19559599	          0.36515337	          0.01000033	          0.01386818	          0.05654161	          0.26504359	          0.01000077	          0.01000074	          0.01000062	          0.26142110	          0.34534324	          0.30338322	          0.27481931	          0.33792195	          0.40239431	          0.01177693	          0.01000143	          0.10537975	          0.01177755	          0.01342603	          0.01373718	          0.01735144	          0.01177431	          0.01000043	          0.01177713	          0.01177656	          0.01000303	          0.06409163	          0.03484207	          0.20087827	          0.01000009	          0.01000038	          0.08384200	          0.20485826	          0.20960666	          0.18720337	          0.07110688	          0.01000047	          0.02332918	          0.03041401	          0.01000496	          0.03213319	          0.08630908	          0.01000022	          0.01000011	          0.03495090	          0.17394462	          0.06363276	          0.01633240	          0.09287911	          0.09329648	          0.07908896	          0.01000020	          0.01000029	          0.01235618	          0.01000007	          0.01000033	          0.01000033	          0.29405961	          0.17152821	          0.10115378	          0.18938718	          0.32341645	          0.04347784	          0.01915685	          0.01505413	          0.01320488	          0.02320719	          0.01000041	          0.04640663	
          1.62017915	         -2.91214192	          2.86009133	         -1.63889345	          2.01402385	          0.98959663	          0.00092479	        -13.84308262	         -0.88348590	          6.34019999	        -11.90559324	          3.54937217	         10.54510927	         19.14782514	         21.27345072	          5.27307560	          1.68243823	         -3.30722888	          4.97245923	         -2.39717160	          0.21328011	         -3.50592953	         -3.03796053	          1.80582847	         -2.40740509	        -13.78195494	         18.67814176	         47.25751310	         -8.10189022	        -13.45841604	         12.14686551	         32.34156287	          0.15448390	          0.07929252	          0.04823081	          0.20651224	          0.17233155	          0.11831652	          0.01019913	          0.01000847	          0.01177624	          0.03362987	          0.05565146	          0.01923299	          0.05147435	          0.01177770	          0.01177826	          0.01177865	          0.27840009	          0.03264806	          0.01001243	          0.01177733	          0.01177581	          0.01177677	          0.16608994	          0.31006923	          0.01177640	          0.01177685	          0.04801223	          0.23364120	          0.03751750	          0.03673740	          0.02793777	          0.22198518	          0.29324757	          0.25761732	          0.23959147	          0.28694605	          0.34169260	          0.01000037	          0.01000029	          0.10600138	          0.01000092	          0.01140070	          0.01166495	          0.01473395	          0.01000009	          0.04433230	          0.01000056	          0.01000014	          0.01000019	          0.05442339	          0.04840802	          0.17057537	          0.01923410	          0.01000546	          0.07119442	          0.23053598	          0.22910576	          0.15896493	          0.06038039	          0.01000020	          0.01981285	          0.16443246	          0.01002278	          0.02728601	          0.07328922	          0.01000040	          0.01386840	          0.17329653	          0.14770477	          0.05403367	          0.01386866	          0.07886823	          0.07922265	          0.06715835	          0.01387159	          0.01633235	          0.01386838	          0.01642742	          0.01605262	          0.01634244	          0.24970023	          0.18296562	          0.11464082	          0.16081794	          0.27462883	          0.07001511	          0.02678134	          0.01278319	          0.01845631	          0.01970635	          0.01386870	          0.03940610	
          1.63083822	         -2.89920910	          3.21921588	         -1.70186237	          2.03000709	          0.98925238	          0.00074060	        -13.61570284	         -1.28630826	          6.07733831	        -13.80971724	          2.22977491	         11.04244480	         20.36264859	         20.27833161	          5.72311215	          1.83013902	         -3.01047525	          3.52258151	         -2.47695405	          0.21213029	         -3.30564821	         -3.55831610	          1.85487217	         -2.99724373	        -13.77453902	         18.62902462	         48.10418827	         -8.31407875	        -13.48903901	         12.05938783	         31.57621298	          0.21012720	          0.06733110	          0.04095510	          0.28158149	          0.14633515	          0.10046828	          0.01000335	          0.01000032	          0.01000016	          0.02855676	          0.04725644	          0.01633190	          0.04370950	          0.01000117	          0.01000191	          0.01000201	          0.23640409	          0.02772447	          0.01000120	          0.01000248	          0.01000084	          0.01000060	          0.14103496	          0.26329468	          0.01000010	          0.01000059	          0.04076951	          0.19839597	          0.03185797	          0.03119554	          0.02372335	          0.18849825	          0.24901058	          0.21875520	          0.20344866	          0.24365977	          0.29014766	          0.01000003	          0.03017373	          0.11491291	          0.01000016	          0.01000007	          0.01000025	          0.24499762	          0.23469321	          0.27012091	          0.19243591	          0.12927345	          0.22390289	          0.05637519	          0.04110882	          0.14484374	          0.01633277	          0.01177527	          0.06045462	          0.19575920	          0.19454486	          0.13498500	          0.05127219	          0.01000694	          0.01682458	          0.13962768	          0.01000036	          0.02317002	          0.06223352	          0.01177663	          0.01177662	          0.14715453	          0.12542354	          0.13804984	          0.01177662	          0.06697109	          0.06727205	          0.05702764	          0.01177905	          0.01386861	          0.01177647	          0.01394935	          0.01363122	          0.01387730	          0.39019184	          0.17577083	          0.09760117	          0.43389143	          0.38383656	          0.15062637	          0.03914223	          0.02371950	          0.01567214	          0.01923370	          0.01177662	          0.03346161	
